<svg id="Layer_1" xmlns="http://www.w3.org/2000/svg" viewBox="0 0 260 75" preserveAspectRatio="xMinYMid" aria-hidden="true" focusable="false"><path d="M98.5 42.4c-.5 1.2-1.2 1.8-2.1 2.1-2.6 1.1-6.8 1.3-9.6 1.3-10.6 0-18.3-6.3-18.3-17.9 0-12 7.9-19.3 19.6-19.3 3 0 6.6.4 9 1.2 1 .3 1.5.9 1.8 1.8.4 1.2.4 4.8.4 7.5l-2.1.2c-.6-2.4-1.1-4.3-1.6-5.1-.3-.6-.9-1.2-1.6-1.5-1.5-.7-3.6-1.1-6.3-1.1-8.5 0-14.4 5.6-14.4 15.9 0 9.8 5.5 15.7 14 15.7 2.1 0 4.4-.3 5.7-.8 1-.4 1.6-1 2.1-1.5.8-.9 1.8-3.2 2.8-5.5l2.1.4c-.1 1.4-.6 4.5-1.5 6.6zM121.1 45.9c-11.3 0-17.5-7.9-17.5-18.6 0-11 7.5-18.6 17.5-18.6 11 0 17.2 7 17.2 18.4.1 11.1-7.1 18.8-17.2 18.8zm-.2-34.4c-7.4 0-12.4 5.6-12.4 15.1 0 10.8 5.1 16.5 12.8 16.5 7.4 0 12.3-5.6 12.3-15.2 0-10-5-16.4-12.7-16.4zM148.5 45c-1.9 0-4.7.1-7.9.1v-2c1.9-.2 3.3-.4 3.9-.6.9-.4 1.1-.6 1.1-3.3v-24c0-2.3-.2-2.5-.5-2.9-.4-.3-1.2-.6-4.4-.8v-2h9.9c4.3 0 7.3.1 9.4.5 5.5 1.1 8.6 4.4 8.6 9.8 0 6.9-5 10.6-13.8 10.6-1.5 0-3.1 0-4.5-.2v8.9c0 2 .1 2.8.5 3.2.5.4 1.8.6 5.1.9v2c-3-.1-6.1-.2-7.4-.2zm5.4-17.2c6 0 9.7-2.1 9.7-7.6 0-3.8-1.4-6.5-5.1-7.5-1.7-.4-4-.7-8.3-.7v15.7c1.2.1 2.8.1 3.7.1zM177.9 45c-1.9 0-4.8.1-7.9.1v-2c1.9-.2 3.3-.4 3.9-.6.9-.4 1.1-.6 1.1-3.3v-24c0-2.3-.2-2.5-.5-2.9-.4-.3-1.2-.6-4.4-.8v-2h9.9c4.3 0 7.3.1 9.4.5 5.5 1.1 8.6 4.4 8.6 9.8 0 6.9-5 10.6-13.8 10.6-1.5 0-3.1 0-4.5-.2v8.9c0 2 .1 2.8.5 3.2.5.4 1.8.6 5.1.9v2c-3-.1-6.2-.2-7.4-.2zm5.3-17.2c6 0 9.7-2.1 9.7-7.6 0-3.8-1.4-6.5-5.1-7.5-1.7-.4-4-.7-8.3-.7v15.7c1.3.1 2.8.1 3.7.1zM206.7 45c-1.3 0-4.9.1-7.3.1v-2c3.1-.2 4.1-.4 4.5-.9.4-.3.4-.9.4-3.3V15.5c0-2-.1-2.8-.4-3.2-.4-.4-1.1-.7-4.5-.9v-2c2.5.1 6 .1 7.3.1 1.4 0 4.8-.1 7.2-.1v2c-3.6.3-4.3.6-4.7 1-.3.4-.4 1.2-.4 3V39c0 2.4.1 2.9.4 3.2.4.4 1.5.7 4.6.9v2c-2.3 0-5.7-.1-7.1-.1zM223.9 45c-1.2 0-3.6.1-6.7.1v-2c3.6-.2 4.3-.6 4.7-1.1.3-.5.3-1.6.3-4.4 0-5.8.1-20.4.1-20.7 0-2.5-.1-3.6-.4-4-.3-.6-.8-.9-1.8-1.1-.8-.2-2.2-.3-3-.4v-2c1.2.1 4.2.1 5.1.1.9 0 2.4 0 4.3-.1 6.6 8.9 13.5 18.1 20.3 27.1-.1-7-.2-17.5-.3-19.6-.1-2.9-.1-3.9-.5-4.5-.3-.4-1.1-.8-4.6-1v-2c3 .1 5.4.1 6.6.1 1.6 0 3.9-.1 6.9-.1v2c-3.4.3-4.1.4-4.6.9-.5.4-.6 1.3-.6 4.5 0 5.5-.1 12.6-.1 18.9 0 2.5.1 7.3.1 9.3h-2.6c-1.6-2.1-5.9-8.5-21.9-29.5.1 7.2.2 20.6.2 22.2 0 3.2 0 4 .4 4.5.5.6 1.5.7 4.8.9v2c-2.9 0-5.1-.1-6.7-.1z" fill="#fff"/><g><path d="M73.9 63.1l1-1.3c.8.7 1.6 1.2 2.7 1.2 1 0 1.6-.5 1.6-1.3 0-.7-.3-1.1-2-1.7-2-.7-3-1.5-3-3.1 0-1.7 1.4-2.9 3.3-2.9 1.2 0 2.3.4 3.3 1.2l-1 1.3c-.7-.6-1.5-1-2.3-1-.9 0-1.5.5-1.5 1.2s.4 1.1 2.1 1.8c1.9.7 2.8 1.5 2.8 3.1 0 1.8-1.4 3-3.4 3-1.2 0-2.5-.4-3.6-1.5zM88.4 55.7h-2.7v-1.6h7.2v1.6h-2.7v8.8h-1.7v-8.8zM99.8 54h1.7l3.8 10.4h-1.8l-.9-2.4h-4l-.9 2.4H96L99.8 54zm2.3 6.5l-1.5-4.2-1.5 4.2h3zM111.3 55.7h-2.7v-1.6h7.2v1.6H113v8.8h-1.7v-8.8zM120.7 54.1h6.5v1.6h-4.8v2.8h4.3V60h-4.3v2.9h4.9v1.6h-6.6V54.1zM139.7 60.5v-6.4h1.7v6.4c0 1.7.8 2.5 2.1 2.5s2.1-.8 2.1-2.5V54h1.7v6.4c0 2.8-1.5 4.2-3.9 4.2-2.2 0-3.7-1.4-3.7-4.1zM153.1 54.1h1.6l4.6 6.9v-6.9h1.7v10.4h-1.5l-4.7-7.1v7.1h-1.7V54.1zM166.8 54.1h1.7v10.4h-1.7V54.1zM173.5 54.1h1.9l2.5 7.8 2.5-7.8h1.8l-3.6 10.4H177l-3.5-10.4zM187.1 54.1h6.5v1.6h-4.8v2.8h4.3V60h-4.3v2.9h4.9v1.6h-6.6V54.1zM199 54.1h3.7c1.2 0 2.1.4 2.8 1 .5.5.9 1.3.9 2.3v.1c0 1.6-.9 2.6-2.1 3l2.4 4h-2l-2.2-3.7h-1.8v3.7H199V54.1zm3.6 5.2c1.3 0 2.1-.7 2.1-1.8 0-1.2-.8-1.8-2-1.8h-1.9v3.6h1.8zM211 63.1l1-1.3c.8.7 1.6 1.2 2.7 1.2 1 0 1.6-.5 1.6-1.3 0-.7-.3-1.1-2-1.7-2-.7-3-1.5-3-3.1 0-1.7 1.4-2.9 3.3-2.9 1.2 0 2.3.4 3.3 1.2l-1 1.3c-.7-.6-1.5-1-2.3-1-.9 0-1.5.5-1.5 1.2s.4 1.1 2.1 1.8c1.9.7 2.8 1.5 2.8 3.1 0 1.8-1.4 3-3.4 3-1.2 0-2.5-.4-3.6-1.5zM223.4 54.1h1.7v10.4h-1.7V54.1zM232.8 55.7h-2.7v-1.6h7.2v1.6h-2.7v8.8h-1.7v-8.8zM245.3 60.3l-3.5-6.2h2l2.4 4.5 2.4-4.5h1.9l-3.5 6.2v4.1h-1.7v-4.1z" fill="#f6c219"/></g><g><path d="M58.7 11.8v-1.7l-1.5-.7C56.9 9.3 47.2 5 32 5h-.2C16.5 5 6.9 9.3 6.5 9.5l-1.5.6V25.4c.2 8 .4 18 6.1 26.6 5 7.5 14.1 15.6 19.9 17.7l.8.3.8-.3c5.9-2.1 15-10.2 19.9-17.7 5.7-8.6 5.9-18.6 6.1-26.6V11.8zm-7.1 37.1c-1.1-.5-4-2-4.8-2.4-.4-10.6-11.3-10.6-20-32-.5 6.2-2.6 8.1-2.6 8.1s.6-5.9-1-9c-9.1 1.6-14-.7-13.7-.5.1.3.9 2.6 4.7 7.4 7.4 9.3 20.6 23.1 36.5 29.6-.1.1-.1.2-.2.3-4.7 7.1-13.5 14.8-18.7 16.7-5.2-1.9-14-9.6-18.7-16.7-5-7.4-5.4-16.1-5.6-25V11.8s9.4-4.2 24.3-4.2h.2c14.9 0 24.3 4.2 24.3 4.2v13.6c-.2 8.2-.6 16.3-4.7 23.5z" fill="#f6c219"/><path d="M31.9 64.8c.6-.3 3.9-1.8 9-6.6 2.5-2.3 4.7-4.7 6.8-7.6L45 49.5c-6.5 2-12-1.5-12-1.5 3.1-.3 4-1.6 4-1.6-2.8.2-5.5-.3-8-1-8.7-7.1-16.7-16.8-19.1-24v5.7c.3 7.9.8 15.1 4.9 21.8 4.6 7.1 12.4 13.7 17.1 15.9z" fill="#f6c219"/></g></svg>