<svg xmlns="http://www.w3.org/2000/svg" xmlns:xlink="http://www.w3.org/1999/xlink" width="282" height="97" viewBox="0 0 282 97">
    <defs>
        <path id="a" d="M.411.593h28.823v19.673H.41z"/>
        <path id="c" d="M.097.05h63.416v13.33H.097z"/>
    </defs>
    <g fill="none" fill-rule="evenodd">
        <path fill="#177359" d="M122.013 30.479h2.546c1.331 0 2.314.752 2.314 2.285 0 1.505-.983 2.257-2.314 2.257h-2.546V30.48zm9.084 2.256c0-3.876-2.632-6.22-6.48-6.22h-6.712V46.19h4.108v-7.204h1.21l2.99 7.045h4.356l-3.126-7.55c2.25-.884 3.654-2.896 3.654-5.745zM80.53 34.819v11.37h-4.108V28.975l-1.36-2.17v-.29h4.861l8.621 12.527V26.515h4.109V46.19h-4.109l-8.014-11.37M105.193 42.399c3.327 0 5.874-2.69 5.874-6.047 0-3.327-2.547-6.047-5.874-6.047-3.356 0-5.901 2.72-5.901 6.047 0 3.356 2.545 6.047 5.901 6.047zm0-16.201c5.758 0 10.127 4.397 10.127 10.154s-4.369 10.155-10.127 10.155c-5.757 0-10.125-4.398-10.125-10.155s4.368-10.154 10.125-10.154zM138.467 39.1v7.089h-4.108V26.515h12.793v3.964h-8.685v4.658h6.51V39.1h-6.51M158.09 42.399c3.327 0 5.873-2.69 5.873-6.047 0-3.327-2.546-6.047-5.872-6.047-3.357 0-5.903 2.72-5.903 6.047 0 3.356 2.546 6.047 5.903 6.047zm0-16.201c5.757 0 10.126 4.397 10.126 10.154s-4.369 10.155-10.125 10.155c-5.758 0-10.127-4.398-10.127-10.155s4.369-10.154 10.127-10.154zM170.277 46.189V26.515h4.108v15.71h9.04v3.964h-13.148M185.405 26.515h4.109v7.957l5.062-7.957h4.803l-5.324 8.072 5.613 11.602h-4.803l-3.76-8.101-1.591 2.256v5.845h-4.109V26.515M219.097 31.463c-1.013-.724-2.749-1.418-4.253-1.418-1.65 0-2.43.752-2.43 1.765 0 .637.52 1.244 1.474 1.794l2.604 1.562c2.547 1.533 3.56 3.24 3.56 5.439 0 3.095-2.055 5.902-6.627 5.902-1.937 0-3.731-.492-4.975-1.012v-4.543c1.07.84 2.98 1.707 4.802 1.707 1.563 0 2.43-.752 2.43-1.823 0-.665-.462-1.273-1.561-1.909l-2.691-1.591c-2.604-1.505-3.414-3.183-3.414-5.41 0-2.75 1.765-5.728 6.857-5.728 1.475 0 3.008.347 4.224.896v4.37M226.416 30.479h-4.774v-3.964h13.656v3.964h-4.773v15.71h-4.109v-15.71M241.952 38.03h4.34l-2.17-6.133-2.17 6.133zm5.67 3.963h-7.03l-1.475 4.196h-4.6l7.29-19.674h4.6l7.291 19.674h-4.6l-1.475-4.196z"/>
        <g transform="translate(252.534 25.922)">
            <mask id="b" fill="#fff">
                <use xlink:href="#a"/>
            </mask>
            <path fill="#177359" d="M5.185 4.556H.411V.593h13.656v3.963H9.294v15.71H5.185V4.556M16.816 20.266V.593h12.43v3.963h-8.322v3.82h6.51v3.963h-6.51v3.964h8.322v3.963h-12.43" mask="url(#b)"/>
        </g>
        <path fill="#515251" d="M88.534 64.49c0 .878-.11 1.71-.33 2.498a5.766 5.766 0 0 1-1.044 2.079c-.477.598-1.102 1.075-1.874 1.431-.773.356-1.713.534-2.818.534-1.106 0-2.045-.178-2.818-.534-.771-.356-1.397-.833-1.874-1.431a5.766 5.766 0 0 1-1.045-2.08 9.243 9.243 0 0 1-.33-2.498v-9.952h1.909v9.68c0 .65.069 1.28.205 1.884.136.607.364 1.145.681 1.614.318.47.742.845 1.272 1.125s1.198.42 2 .42 1.469-.14 2-.42c.53-.28.954-.655 1.272-1.125.318-.469.545-1.007.681-1.614a8.549 8.549 0 0 0 .205-1.884v-9.68h1.908v9.952M93.336 54.537h2.408l9.315 13.36h.046v-13.36h1.909v16.087h-2.409l-9.315-13.36h-.046v13.36h-1.908V54.537M111.883 70.623h1.909V54.537h-1.91zM116.457 54.537h2.158l4.953 13.223h.046l5.112-13.223h2.022l-6.294 16.087h-1.84l-6.157-16.087M133.413 54.537h10.111v1.772h-8.201v5.044h7.656v1.773h-7.656v5.726h8.61v1.772h-10.52V54.537M149.665 61.626h1.705c.53 0 1.079-.015 1.647-.046a5.643 5.643 0 0 0 1.568-.294c.477-.168.87-.429 1.181-.785.31-.356.466-.867.466-1.533 0-.576-.114-1.037-.34-1.386a2.311 2.311 0 0 0-.898-.807 3.834 3.834 0 0 0-1.25-.375c-.462-.06-.928-.09-1.397-.09h-2.682v5.316zm-1.908-7.09h4.112c.773 0 1.542.047 2.307.137.765.092 1.45.288 2.056.591a3.732 3.732 0 0 1 1.477 1.329c.378.583.567 1.375.567 2.375 0 1.181-.355 2.135-1.067 2.863-.713.726-1.696 1.189-2.954 1.385l4.567 7.408h-2.34l-4.363-7.226h-2.454v7.226h-1.908V54.537zM170.144 57.377a2.813 2.813 0 0 0-1.273-1.125 4.062 4.062 0 0 0-1.658-.352c-.424 0-.84.054-1.25.16-.41.106-.776.264-1.102.477a2.391 2.391 0 0 0-.783.84c-.198.349-.296.758-.296 1.228 0 .363.057.685.17.965.114.28.3.534.557.76.258.227.606.44 1.045.637.44.197.977.394 1.614.591.62.197 1.222.408 1.806.637a6.083 6.083 0 0 1 1.544.863c.447.348.804.783 1.068 1.306.265.522.398 1.178.398 1.965 0 .803-.16 1.5-.476 2.09a4.377 4.377 0 0 1-1.261 1.466 5.469 5.469 0 0 1-1.807.863 8.014 8.014 0 0 1-3.522.159 6.729 6.729 0 0 1-1.352-.385 5.462 5.462 0 0 1-1.216-.683 4.115 4.115 0 0 1-.976-1.033l1.635-1.34c.348.59.834 1.036 1.455 1.34a4.439 4.439 0 0 0 3.215.272 3.734 3.734 0 0 0 1.124-.534 2.9 2.9 0 0 0 .82-.875 2.27 2.27 0 0 0 .317-1.203c0-.501-.084-.906-.25-1.216-.167-.31-.424-.58-.773-.807a5.983 5.983 0 0 0-1.318-.613c-.53-.182-1.15-.394-1.863-.636a11.824 11.824 0 0 1-1.59-.625 4.89 4.89 0 0 1-1.261-.864 3.684 3.684 0 0 1-.84-1.226c-.206-.478-.308-1.049-.308-1.715 0-.773.152-1.448.455-2.023a4.263 4.263 0 0 1 1.227-1.443 5.593 5.593 0 0 1 1.75-.874 7.004 7.004 0 0 1 2.044-.295c.909 0 1.738.14 2.488.42.75.28 1.42.769 2.01 1.465l-1.567 1.363M176.013 70.623h1.908V54.537h-1.908zM193.584 56.31h-5.317v14.314h-1.91V56.309h-5.316v-1.772h12.543v1.772M201.508 63.693l-5.998-9.156h2.431l4.521 7.271 4.658-7.271h2.295l-5.998 9.156v6.93h-1.909v-6.93"/>
        <g transform="translate(16.724 83.62)">
            <mask id="d" fill="#fff">
                <use xlink:href="#c"/>
            </mask>
            <path fill="#EFC83B" d="M63.513 2.232L39.257.049l.003 1.61 16.887 2.552 7.366-1.98M23.555 3.236l-1.054.2-.025-.003-4.98-.846L.097 6.963l22.38 6.417 23.109-6.236-18.304-4.617-3.727.71" mask="url(#d)"/>
        </g>
        <path fill="#177359" d="M46.183 14.32l.024-8.185-2.034-.828-.013 8.36 2.023.654"/>
        <path fill="#177359" d="M32.18 6.212l1.053-.415.006.005v-.007l.228-.09-.007-.01.532-.236.223-.098.02-.004.007-.004v.003l3.616-.655v8.61h-.022l-2.58.285V5.894l-1.014-.52-.023-.01-.004-.003v.004l.027 4.52.012 3.821-.05.006-2.023.655V6.212zM27.127 7.22l3.62 1.058.057 7.242-.258.222.003.975-2.175.603-.695 35.356 11.523-2.554v-34.5l10.681 2.452-.016-1.083L39.2 14.536V.796c3.008.003 5.978.68 8.366 1.91 2.236 1.151 3.573 2.614 3.584 3.917l.111.002.332-.445c-.01-1.302-1.349-2.766-3.584-3.916-2.387-1.23-5.8-2.03-8.81-2.035h-.023c-3.02 0-5.999.672-8.389 1.89-1.863.952-3.1 2.12-3.468 3.237-.142.336-.18.604-.19.703h-.004V7.22z"/>
        <path fill="#177359" d="M43.16 13.542V5.827l.938-.546-3.541-.648v8.622l2.602.287M24.676 56.278l.092 8.427L39.2 63.214v-9.91l15.758 3.163.01-1.592L39.2 51.652l-15.648 3.313.016 1.502 1.107-.19"/>
        <path fill="#EFC83B" d="M22.358 83.74L0 85.93l7.122 2.036 15.231-2.484.005-1.742"/>
        <path fill="#177359" d="M41.687 44.754l6.119 1.278-.024-.69-5.416-1.14-.1-22 4.31.892.025-.689-5.037-1.066.016.722h.006-.006l.102 22.686-.004.005.004.001h.005M51.43 77.706c0-1.897-1.033-4.666-3.544-4.666-2.722 0-3.432 2.26-3.61 4.104l.021 6.371 7.195 1.087a4552.62 4552.62 0 0 1-.061-6.896"/>
        <path fill="#177359" d="M39.2 87.053V66.166l16.638 1.481.935-1.263-17.572-1.643-17.577 1.668 1.378 2.026v12.869l-.64.4-.009 3.778 4.182-.682c-.015-3.44-.038-7.514-.038-7.607 0-2.02 1.1-4.967 3.775-4.967 2.898 0 3.653 2.406 3.843 4.368l.103 9.452.003.122h-.002l.001.04 4.98.845"/>
    </g>
</svg>
